<?xml version="1.0" standalone="no"?>
<!DOCTYPE svg PUBLIC "-//W3C//DTD SVG 1.1//EN" "http://www.w3.org/Graphics/SVG/1.1/DTD/svg11.dtd">
<!--Generator: Xara Designer (www.xara.com), SVG filter version: 6.1.0.18-->
<svg stroke-width="0.501" stroke-linejoin="bevel" fill-rule="evenodd" xmlns:xlink="http://www.w3.org/1999/xlink" xmlns="http://www.w3.org/2000/svg" version="1.1" overflow="visible" width="319.5pt" height="351.75pt" viewBox="0 0 319.5 351.75">
 <defs>
  <linearGradient id="LinearGradient" gradientUnits="userSpaceOnUse" x1="0" y1="0" x2="47.797" y2="0" gradientTransform="translate(219.847 167.301)">
   <stop offset="0" stop-color="#03577c"/>
   <stop offset="1" stop-color="#329280"/>
  </linearGradient>
  <linearGradient id="LinearGradient_1" gradientUnits="userSpaceOnUse" x1="0" y1="0" x2="-38.531" y2="0" gradientTransform="translate(238.948 192.28)">
   <stop offset="0" stop-color="#bbd625"/>
   <stop offset="1" stop-color="#0e983f"/>
  </linearGradient>
  <linearGradient id="LinearGradient_2" gradientUnits="userSpaceOnUse" x1="0" y1="0" x2="42.78" y2="0" gradientTransform="translate(79.436 55.248)">
   <stop offset="0" stop-color="#03577c"/>
   <stop offset="1" stop-color="#329280"/>
  </linearGradient>
  <linearGradient id="LinearGradient_3" gradientUnits="userSpaceOnUse" x1="0" y1="0" x2="-34.487" y2="0" gradientTransform="translate(96.533 77.604)">
   <stop offset="0" stop-color="#bbd625"/>
   <stop offset="1" stop-color="#0e983f"/>
  </linearGradient>
  <linearGradient id="LinearGradient_4" gradientUnits="userSpaceOnUse" x1="0" y1="0" x2="-63.937" y2="58.5" gradientTransform="translate(260.167 246.038)">
   <stop offset="0" stop-color="#02414d"/>
   <stop offset="0.314615070819855" stop-color="#157079"/>
   <stop offset="0.638267397880554" stop-color="#097445"/>
   <stop offset="1" stop-color="#5eb533"/>
  </linearGradient>
 </defs>
 <g id="Document" fill="none" stroke="black" font-family="Times New Roman" font-size="16" transform="scale(1 -1)">
  <g id="Spread" transform="translate(0 -351.75)">
   <g id="MouseOff">
    <path d="M 30.214,226.678 L 30.214,112.075 L 160.417,112.075 L 160.417,226.678 L 30.214,226.678 Z" fill="#3c3c3c" stroke-width="0.75" stroke-linecap="round" stroke="none" stroke-linejoin="miter" marker-start="none" marker-end="none" stroke-miterlimit="79.8403193612775"/>
    <g id="Group" stroke-linejoin="round" stroke-linecap="round" stroke="none">
     <g id="Group_1" stroke-width="0.75" stroke-miterlimit="79.8403193612775">
      <path d="M 255.703,159.804 L 234.055,185.262 L 249.828,185.262 C 252.829,185.262 255.264,187.697 255.264,190.699 L 255.264,190.7 C 255.264,193.7 252.829,196.137 249.828,196.137 L 202.647,196.137 L 213.158,208.496 L 253.884,208.496 C 262.834,208.496 270.099,201.23 270.099,192.282 L 270.099,192.28 C 270.099,184.526 264.644,178.037 257.367,176.441 L 271.515,159.804 L 255.703,159.804 Z" marker-start="none" marker-end="none" fill="url(#LinearGradient)"/>
      <path d="M 189.799,172.119 L 189.799,172.12 C 189.799,175.813 191.427,179.906 194.005,182.165 C 191.391,185.043 189.799,188.088 189.799,192.28 L 189.799,192.282 C 189.799,201.23 197.063,208.495 206.014,208.495 L 228.517,208.496 L 239.028,196.137 L 210.07,196.135 C 207.068,196.135 204.632,193.699 204.632,190.699 L 204.632,190.699 C 204.632,187.697 207.068,185.262 210.07,185.262 L 222.038,185.262 L 227.645,178.686 L 227.735,178.581 L 209.366,178.581 C 206.726,178.581 204.582,176.437 204.582,173.797 L 204.582,173.796 C 204.582,171.155 206.726,169.011 209.366,169.011 L 235.898,169.011 L 243.755,159.804 L 202.117,159.804 C 195.318,159.804 189.799,165.322 189.799,172.119 Z" marker-start="none" marker-end="none" fill="url(#LinearGradient_1)"/>
     </g>
     <g id="Group_2" fill-rule="nonzero" stroke-width="0.25" fill="#000000" stroke-miterlimit="79.8403193612775">
      <g id="Group_3">
       <path d="M 189.797,139.228 L 189.797,149.32 L 199.118,149.32 L 199.118,147.133 L 191.998,147.133 L 191.998,145.367 L 197.73,145.367 L 197.73,143.181 L 191.998,143.181 L 191.998,141.415 L 199.118,141.415 L 199.118,139.228 L 189.797,139.228 Z M 200.535,139.228 L 200.535,147.245 C 200.535,147.825 200.736,148.315 201.138,148.717 C 201.539,149.119 202.03,149.32 202.609,149.32 L 208.538,149.32 C 209.118,149.32 209.611,149.117 210.017,148.71 C 210.423,148.304 210.627,147.815 210.627,147.245 L 210.627,139.228 L 208.426,139.228 L 208.426,142.48 L 202.707,142.48 L 202.707,139.228 L 200.535,139.228 Z M 212.764,139.831 C 212.357,140.233 212.154,140.723 212.154,141.302 L 212.154,142.242 L 214.326,142.242 L 214.326,141.415 L 220.045,141.415 L 220.045,143.181 L 214.228,143.181 C 213.658,143.181 213.17,143.382 212.764,143.783 C 212.357,144.185 212.154,144.676 212.154,145.255 L 212.154,147.245 C 212.154,147.825 212.357,148.315 212.764,148.717 C 213.17,149.119 213.658,149.32 214.228,149.32 L 220.171,149.32 C 220.741,149.32 221.229,149.117 221.636,148.71 C 222.042,148.304 222.246,147.815 222.246,147.245 L 222.246,146.306 L 220.045,146.306 L 220.045,147.133 L 214.326,147.133 L 214.326,145.367 L 220.171,145.367 C 220.741,145.367 221.229,145.164 221.636,144.757 C 222.042,144.351 222.246,143.863 222.246,143.293 L 222.246,141.302 C 222.246,140.732 222.042,140.244 221.636,139.838 C 221.229,139.431 220.741,139.228 220.171,139.228 L 214.228,139.228 C 213.658,139.228 213.17,139.429 212.764,139.831 Z M 227.863,139.228 L 227.863,142.998 L 226.027,145.465 L 223.195,149.32 L 225.788,149.32 L 228.956,145.339 L 232.11,149.32 L 234.731,149.32 L 230.049,142.984 L 230.049,139.228 L 227.863,139.228 Z M 235.027,139.228 L 235.027,149.306 L 243.03,149.306 C 243.6,149.306 244.091,149.103 244.502,148.696 C 244.913,148.29 245.119,147.801 245.119,147.231 L 245.119,144.624 C 245.119,144.054 244.913,143.566 244.502,143.16 C 244.091,142.753 243.6,142.55 243.03,142.55 L 242.932,142.55 L 245.119,139.971 L 245.119,139.228 L 242.876,139.228 L 240.087,142.55 L 237.199,142.536 C 237.227,142.536 237.241,142.508 237.241,142.452 C 237.223,142.452 237.209,142.456 237.199,142.466 L 237.199,139.228 L 235.027,139.228 Z M 246.635,139.228 L 246.635,147.245 C 246.635,147.825 246.836,148.315 247.238,148.717 C 247.639,149.119 248.13,149.32 248.709,149.32 L 254.638,149.32 C 255.218,149.32 255.711,149.117 256.117,148.71 C 256.523,148.304 256.727,147.815 256.727,147.245 L 256.727,139.228 L 254.526,139.228 L 254.526,142.48 L 248.807,142.48 L 248.807,139.228 L 246.635,139.228 Z M 258.338,139.228 L 258.338,149.32 L 260.524,149.32 L 260.524,139.228 L 258.338,139.228 Z M 261.424,139.228 L 261.424,149.334 L 263.596,149.334 L 263.596,141.415 L 271.516,141.415 L 271.516,139.228 L 261.424,139.228 Z M 208.426,144.666 L 208.426,147.133 L 202.707,147.133 L 202.707,144.666 L 208.426,144.666 Z M 254.526,144.666 L 254.526,147.133 L 248.807,147.133 L 248.807,144.666 L 254.526,144.666 Z M 242.918,144.736 L 242.918,147.133 L 237.199,147.133 L 237.199,144.736 L 242.918,144.736 Z" marker-start="none" marker-end="none"/>
      </g>
     </g>
     <g id="Group_4" fill-rule="nonzero" stroke-width="0.25" fill="#797979" stroke-miterlimit="79.8403193612775">
      <g id="Group_5">
       <path d="M 190.085,130.545 C 189.893,130.735 189.797,130.967 189.797,131.241 L 189.797,131.685 L 190.824,131.685 L 190.824,131.294 L 193.527,131.294 L 193.527,132.128 L 190.778,132.128 C 190.508,132.128 190.277,132.223 190.085,132.413 C 189.893,132.603 189.797,132.835 189.797,133.109 L 189.797,134.05 C 189.797,134.324 189.893,134.556 190.085,134.746 C 190.277,134.936 190.508,135.031 190.778,135.031 L 193.587,135.031 C 193.856,135.031 194.087,134.935 194.279,134.742 C 194.471,134.55 194.568,134.319 194.568,134.05 L 194.568,133.606 L 193.527,133.606 L 193.527,133.997 L 190.824,133.997 L 190.824,133.162 L 193.587,133.162 C 193.856,133.162 194.087,133.066 194.279,132.874 C 194.471,132.682 194.568,132.451 194.568,132.181 L 194.568,131.241 C 194.568,130.971 194.471,130.74 194.279,130.548 C 194.087,130.356 193.856,130.26 193.587,130.26 L 190.778,130.26 C 190.508,130.26 190.277,130.355 190.085,130.545 Z M 200.283,130.545 C 200.093,130.735 199.998,130.967 199.998,131.241 L 199.998,134.05 C 199.998,134.324 200.093,134.556 200.283,134.746 C 200.473,134.936 200.705,135.031 200.978,135.031 L 203.788,135.031 C 204.057,135.031 204.288,134.935 204.48,134.742 C 204.672,134.55 204.768,134.319 204.768,134.05 L 204.768,131.241 C 204.768,130.971 204.672,130.74 204.48,130.548 C 204.288,130.356 204.057,130.26 203.788,130.26 L 200.978,130.26 C 200.705,130.26 200.473,130.355 200.283,130.545 Z M 210.241,130.26 L 210.241,135.037 L 211.268,135.037 L 211.268,131.294 L 215.011,131.294 L 215.011,130.26 L 210.241,130.26 Z M 220.402,130.545 C 220.212,130.735 220.117,130.967 220.117,131.241 L 220.117,135.031 L 221.144,135.031 L 221.144,131.294 L 223.847,131.294 L 223.847,135.031 L 224.887,135.031 L 224.887,131.241 C 224.887,130.971 224.791,130.74 224.599,130.548 C 224.407,130.356 224.176,130.26 223.907,130.26 L 221.097,130.26 C 220.824,130.26 220.592,130.355 220.402,130.545 Z M 231.983,130.26 L 231.983,133.997 L 230.115,133.997 L 230.115,135.031 L 234.885,135.031 L 234.885,133.997 L 233.017,133.997 L 233.017,130.26 L 231.983,130.26 Z M 240.124,130.26 L 240.124,135.031 L 241.157,135.031 L 241.157,130.26 L 240.124,130.26 Z M 246.584,130.545 C 246.394,130.735 246.299,130.967 246.299,131.241 L 246.299,134.05 C 246.299,134.324 246.394,134.556 246.584,134.746 C 246.774,134.936 247.006,135.031 247.279,135.031 L 250.089,135.031 C 250.358,135.031 250.589,134.935 250.781,134.742 C 250.973,134.55 251.069,134.319 251.069,134.05 L 251.069,131.241 C 251.069,130.971 250.973,130.74 250.781,130.548 C 250.589,130.356 250.358,130.26 250.089,130.26 L 247.279,130.26 C 247.006,130.26 246.774,130.355 246.584,130.545 Z M 256.535,130.26 L 256.535,135.031 L 257.595,135.031 L 260.265,131.85 L 260.265,135.031 L 261.306,135.031 L 261.306,130.26 L 260.246,130.26 L 257.562,133.454 L 257.562,130.26 L 256.535,130.26 Z M 267.039,130.545 C 266.847,130.735 266.751,130.967 266.751,131.241 L 266.751,131.685 L 267.778,131.685 L 267.778,131.294 L 270.481,131.294 L 270.481,132.128 L 267.732,132.128 C 267.462,132.128 267.231,132.223 267.039,132.413 C 266.847,132.603 266.751,132.835 266.751,133.109 L 266.751,134.05 C 266.751,134.324 266.847,134.556 267.039,134.746 C 267.231,134.936 267.462,135.031 267.732,135.031 L 270.541,135.031 C 270.81,135.031 271.041,134.935 271.233,134.742 C 271.425,134.55 271.522,134.319 271.522,134.05 L 271.522,133.606 L 270.481,133.606 L 270.481,133.997 L 267.778,133.997 L 267.778,133.162 L 270.541,133.162 C 270.81,133.162 271.041,133.066 271.233,132.874 C 271.425,132.682 271.522,132.451 271.522,132.181 L 271.522,131.241 C 271.522,130.971 271.425,130.74 271.233,130.548 C 271.041,130.356 270.81,130.26 270.541,130.26 L 267.732,130.26 C 267.462,130.26 267.231,130.355 267.039,130.545 Z M 203.728,131.294 L 203.728,133.997 L 201.025,133.997 L 201.025,131.294 L 203.728,131.294 Z M 250.029,131.294 L 250.029,133.997 L 247.326,133.997 L 247.326,131.294 L 250.029,131.294 Z" marker-start="none" marker-end="none"/>
      </g>
     </g>
    </g>
    <g id="Group_6" stroke-linejoin="round" stroke-linecap="round" stroke="none" stroke-width="0.75" stroke-miterlimit="79.8403193612775">
     <path d="M 111.529,48.538 L 92.154,71.323 L 106.27,71.323 C 108.956,71.323 111.136,73.503 111.136,76.189 L 111.136,76.19 C 111.136,78.875 108.956,81.057 106.27,81.057 L 64.043,81.057 L 73.451,92.118 L 109.901,92.118 C 117.91,92.118 124.413,85.616 124.413,77.606 L 124.413,77.604 C 124.413,70.664 119.531,64.857 113.017,63.428 L 125.68,48.538 L 111.529,48.538 Z" marker-start="none" marker-end="none" fill="url(#LinearGradient_2)"/>
     <path d="M 52.544,59.56 L 52.544,59.562 C 52.544,62.866 54.001,66.53 56.308,68.551 C 53.968,71.127 52.544,73.853 52.544,77.604 L 52.544,77.606 C 52.544,85.615 59.045,92.117 67.056,92.117 L 87.197,92.118 L 96.604,81.057 L 70.687,81.055 C 67.999,81.055 65.82,78.875 65.82,76.189 L 65.82,76.189 C 65.82,73.503 67.999,71.323 70.687,71.323 L 81.398,71.323 L 86.416,65.438 L 86.497,65.345 L 70.057,65.345 C 67.693,65.345 65.775,63.425 65.775,61.062 L 65.775,61.062 C 65.775,58.697 67.693,56.779 70.057,56.779 L 93.803,56.779 L 100.835,48.538 L 63.568,48.538 C 57.483,48.538 52.544,53.476 52.544,59.56 Z" marker-start="none" marker-end="none" fill="url(#LinearGradient_3)"/>
    </g>
    <g id="Group_7" fill-rule="nonzero" stroke-linejoin="round" stroke-linecap="round" stroke="none" stroke-width="0.25" fill="#0e983f" stroke-miterlimit="79.8403193612775">
     <g id="Group_8">
      <path d="M 136.689,69.264 L 136.689,88.108 L 154.094,88.108 L 154.094,84.025 L 140.798,84.025 L 140.798,80.728 L 151.503,80.728 L 151.503,76.645 L 140.798,76.645 L 140.798,73.347 L 154.094,73.347 L 154.094,69.264 L 136.689,69.264 Z M 156.74,69.264 L 156.74,84.235 C 156.74,85.317 157.115,86.233 157.865,86.983 C 158.616,87.733 159.532,88.108 160.614,88.108 L 171.685,88.108 C 172.766,88.108 173.687,87.729 174.446,86.97 C 175.205,86.211 175.584,85.299 175.584,84.235 L 175.584,69.264 L 171.475,69.264 L 171.475,75.336 L 160.797,75.336 L 160.797,69.264 L 156.74,69.264 Z M 179.574,70.389 C 178.815,71.14 178.436,72.056 178.436,73.138 L 178.436,74.891 L 182.493,74.891 L 182.493,73.347 L 193.171,73.347 L 193.171,76.645 L 182.309,76.645 C 181.245,76.645 180.333,77.02 179.574,77.77 C 178.815,78.52 178.436,79.436 178.436,80.518 L 178.436,84.235 C 178.436,85.317 178.815,86.233 179.574,86.983 C 180.333,87.733 181.245,88.108 182.309,88.108 L 193.407,88.108 C 194.471,88.108 195.383,87.729 196.142,86.97 C 196.901,86.211 197.28,85.299 197.28,84.235 L 197.28,82.481 L 193.171,82.481 L 193.171,84.025 L 182.493,84.025 L 182.493,80.728 L 193.407,80.728 C 194.471,80.728 195.383,80.348 196.142,79.589 C 196.901,78.83 197.28,77.918 197.28,76.854 L 197.28,73.138 C 197.28,72.073 196.901,71.162 196.142,70.403 C 195.383,69.644 194.471,69.264 193.407,69.264 L 182.309,69.264 C 181.245,69.264 180.333,69.639 179.574,70.389 Z M 207.769,69.264 L 207.769,76.304 L 204.341,80.911 L 199.054,88.108 L 203.896,88.108 L 209.811,80.675 L 215.7,88.108 L 220.594,88.108 L 211.852,76.278 L 211.852,69.264 L 207.769,69.264 Z M 171.475,79.419 L 171.475,84.025 L 160.797,84.025 L 160.797,79.419 L 171.475,79.419 Z" marker-start="none" marker-end="none"/>
     </g>
    </g>
    <g id="Group_9" fill-rule="nonzero" stroke-linejoin="round" stroke-linecap="round" stroke="none" stroke-width="0.25" fill="#797979" stroke-miterlimit="79.8403193612775">
     <g id="Group_10">
      <path d="M 137.227,53.05 C 136.868,53.405 136.689,53.838 136.689,54.349 L 136.689,55.178 L 138.607,55.178 L 138.607,54.448 L 143.654,54.448 L 143.654,56.007 L 138.52,56.007 C 138.017,56.007 137.586,56.184 137.227,56.539 C 136.868,56.893 136.689,57.326 136.689,57.838 L 136.689,59.595 C 136.689,60.106 136.868,60.539 137.227,60.894 C 137.586,61.248 138.017,61.426 138.52,61.426 L 143.766,61.426 C 144.269,61.426 144.7,61.246 145.058,60.887 C 145.417,60.529 145.597,60.098 145.597,59.595 L 145.597,58.766 L 143.654,58.766 L 143.654,59.496 L 138.607,59.496 L 138.607,57.937 L 143.766,57.937 C 144.269,57.937 144.7,57.757 145.058,57.399 C 145.417,57.04 145.597,56.609 145.597,56.106 L 145.597,54.349 C 145.597,53.846 145.417,53.415 145.058,53.056 C 144.7,52.697 144.269,52.518 143.766,52.518 L 138.52,52.518 C 138.017,52.518 137.586,52.695 137.227,53.05 Z M 156.268,53.05 C 155.913,53.405 155.736,53.838 155.736,54.349 L 155.736,59.595 C 155.736,60.106 155.913,60.539 156.268,60.894 C 156.623,61.248 157.056,61.426 157.567,61.426 L 162.813,61.426 C 163.316,61.426 163.747,61.246 164.106,60.887 C 164.464,60.529 164.644,60.098 164.644,59.595 L 164.644,54.349 C 164.644,53.846 164.464,53.415 164.106,53.056 C 163.747,52.697 163.316,52.518 162.813,52.518 L 157.567,52.518 C 157.056,52.518 156.623,52.695 156.268,53.05 Z M 174.862,52.518 L 174.862,61.438 L 176.78,61.438 L 176.78,54.448 L 183.77,54.448 L 183.77,52.518 L 174.862,52.518 Z M 193.835,53.05 C 193.48,53.405 193.303,53.838 193.303,54.349 L 193.303,61.426 L 195.221,61.426 L 195.221,54.448 L 200.268,54.448 L 200.268,61.426 L 202.211,61.426 L 202.211,54.349 C 202.211,53.846 202.031,53.415 201.673,53.056 C 201.314,52.697 200.883,52.518 200.38,52.518 L 195.134,52.518 C 194.623,52.518 194.19,52.695 193.835,53.05 Z M 215.46,52.518 L 215.46,59.496 L 211.971,59.496 L 211.971,61.426 L 220.879,61.426 L 220.879,59.496 L 217.39,59.496 L 217.39,52.518 L 215.46,52.518 Z M 230.66,52.518 L 230.66,61.426 L 232.59,61.426 L 232.59,52.518 L 230.66,52.518 Z M 242.722,53.05 C 242.367,53.405 242.19,53.838 242.19,54.349 L 242.19,59.595 C 242.19,60.106 242.367,60.539 242.722,60.894 C 243.077,61.248 243.51,61.426 244.021,61.426 L 249.267,61.426 C 249.77,61.426 250.201,61.246 250.56,60.887 C 250.918,60.529 251.098,60.098 251.098,59.595 L 251.098,54.349 C 251.098,53.846 250.918,53.415 250.56,53.056 C 250.201,52.697 249.77,52.518 249.267,52.518 L 244.021,52.518 C 243.51,52.518 243.077,52.695 242.722,53.05 Z M 261.304,52.518 L 261.304,61.426 L 263.283,61.426 L 268.269,55.487 L 268.269,61.426 L 270.211,61.426 L 270.211,52.518 L 268.232,52.518 L 263.221,58.481 L 263.221,52.518 L 261.304,52.518 Z M 280.917,53.05 C 280.558,53.405 280.379,53.838 280.379,54.349 L 280.379,55.178 L 282.297,55.178 L 282.297,54.448 L 287.344,54.448 L 287.344,56.007 L 282.21,56.007 C 281.707,56.007 281.276,56.184 280.917,56.539 C 280.558,56.893 280.379,57.326 280.379,57.838 L 280.379,59.595 C 280.379,60.106 280.558,60.539 280.917,60.894 C 281.276,61.248 281.707,61.426 282.21,61.426 L 287.456,61.426 C 287.959,61.426 288.39,61.246 288.748,60.887 C 289.107,60.529 289.287,60.098 289.287,59.595 L 289.287,58.766 L 287.344,58.766 L 287.344,59.496 L 282.297,59.496 L 282.297,57.937 L 287.456,57.937 C 287.959,57.937 288.39,57.757 288.748,57.399 C 289.107,57.04 289.287,56.609 289.287,56.106 L 289.287,54.349 C 289.287,53.846 289.107,53.415 288.748,53.056 C 288.39,52.697 287.959,52.518 287.456,52.518 L 282.21,52.518 C 281.707,52.518 281.276,52.695 280.917,53.05 Z M 162.701,54.448 L 162.701,59.496 L 157.654,59.496 L 157.654,54.448 L 162.701,54.448 Z M 249.155,54.448 L 249.155,59.496 L 244.108,59.496 L 244.108,54.448 L 249.155,54.448 Z" marker-start="none" marker-end="none"/>
     </g>
    </g>
    <path d="M 195.923,254.803 L 195.923,295.049 C 195.923,299.555 199.581,303.213 204.087,303.213 L 257.232,303.213 C 261.738,303.213 265.395,299.555 265.395,295.049 L 265.395,254.803 C 265.395,250.297 261.738,246.64 257.232,246.64 L 204.087,246.64 C 199.581,246.64 195.923,250.297 195.923,254.803 Z M 239.106,259.226 L 234.04,265.164 L 216.929,265.164 C 215.226,265.164 213.844,266.546 213.844,268.25 L 213.844,268.25 C 213.844,269.953 215.226,271.335 216.929,271.335 L 228.775,271.335 L 228.717,271.403 L 225.101,275.643 L 217.383,275.643 C 215.447,275.643 213.876,277.214 213.876,279.15 C 213.876,281.085 215.447,282.656 217.383,282.656 L 236.058,282.657 L 243.023,282.657 C 244.958,282.657 246.529,281.086 246.529,279.15 L 246.529,279.15 C 246.529,277.214 244.958,275.643 243.023,275.643 L 232.851,275.643 L 246.812,259.226 L 257.009,259.226 L 247.884,269.955 C 252.578,270.984 256.096,275.169 256.096,280.17 L 256.096,280.171 C 256.096,285.942 251.41,290.628 245.639,290.628 L 219.374,290.628 L 219.373,290.626 L 214.767,290.626 C 208.995,290.626 204.31,285.941 204.31,280.171 L 204.31,280.17 C 204.31,277.466 205.336,275.503 207.023,273.646 C 205.36,272.19 204.31,269.55 204.31,267.169 L 204.31,267.168 C 204.31,262.784 207.869,259.226 212.254,259.226 L 239.106,259.226 Z" stroke-linejoin="round" stroke-linecap="round" stroke="none" stroke-width="0.75" marker-start="none" marker-end="none" stroke-miterlimit="79.8403193612775" fill="url(#LinearGradient_4)"/>
    <path d="M 54.456,172.118 L 54.456,172.119 C 54.456,175.812 56.084,179.905 58.662,182.164 C 56.048,185.042 54.456,188.087 54.456,192.279 L 54.456,192.281 C 54.456,201.229 61.72,208.494 70.671,208.494 L 77.824,208.494 L 77.814,208.494 L 118.541,208.495 C 127.491,208.495 134.756,201.229 134.756,192.281 L 134.756,192.279 C 134.756,184.525 129.301,178.036 122.024,176.44 L 136.172,159.803 L 120.36,159.803 L 98.712,185.261 L 114.485,185.261 C 117.486,185.261 119.921,187.696 119.921,190.698 L 119.921,190.699 C 119.921,193.699 117.486,196.136 114.485,196.136 L 103.685,196.136 L 74.727,196.134 C 71.725,196.134 69.289,193.698 69.289,190.698 C 69.289,187.696 71.725,185.261 74.727,185.261 L 86.695,185.261 L 92.302,178.685 L 92.392,178.58 L 74.023,178.58 C 71.383,178.58 69.239,176.436 69.239,173.796 L 69.239,173.795 C 69.239,171.154 71.383,169.01 74.023,169.01 L 100.555,169.01 L 108.412,159.803 L 66.774,159.803 C 59.975,159.803 54.456,165.321 54.456,172.118 Z" stroke-width="0.75" stroke="none" fill="#ffffff" stroke-linecap="round" stroke-linejoin="round" marker-start="none" marker-end="none" stroke-miterlimit="79.8403193612775"/>
    <path d="M 54.454,139.227 L 54.454,149.319 L 63.775,149.319 L 63.775,147.132 L 56.655,147.132 L 56.655,145.366 L 62.387,145.366 L 62.387,143.18 L 56.655,143.18 L 56.655,141.414 L 63.775,141.414 L 63.775,139.227 L 54.454,139.227 Z M 65.192,139.227 L 65.192,147.244 C 65.192,147.824 65.393,148.314 65.795,148.716 C 66.196,149.118 66.687,149.319 67.266,149.319 L 73.195,149.319 C 73.775,149.319 74.268,149.116 74.674,148.709 C 75.08,148.303 75.284,147.814 75.284,147.244 L 75.284,139.227 L 73.083,139.227 L 73.083,142.479 L 67.364,142.479 L 67.364,139.227 L 65.192,139.227 Z M 77.421,139.83 C 77.014,140.232 76.811,140.722 76.811,141.301 L 76.811,142.241 L 78.983,142.241 L 78.983,141.414 L 84.702,141.414 L 84.702,143.18 L 78.885,143.18 C 78.315,143.18 77.827,143.381 77.421,143.782 C 77.014,144.184 76.811,144.675 76.811,145.254 L 76.811,147.244 C 76.811,147.824 77.014,148.314 77.421,148.716 C 77.827,149.118 78.315,149.319 78.885,149.319 L 84.828,149.319 C 85.398,149.319 85.886,149.116 86.293,148.709 C 86.699,148.303 86.903,147.814 86.903,147.244 L 86.903,146.305 L 84.702,146.305 L 84.702,147.132 L 78.983,147.132 L 78.983,145.366 L 84.828,145.366 C 85.398,145.366 85.886,145.163 86.293,144.756 C 86.699,144.35 86.903,143.862 86.903,143.292 L 86.903,141.301 C 86.903,140.731 86.699,140.243 86.293,139.837 C 85.886,139.43 85.398,139.227 84.828,139.227 L 78.885,139.227 C 78.315,139.227 77.827,139.428 77.421,139.83 Z M 92.52,139.227 L 92.52,142.997 L 90.684,145.464 L 87.852,149.319 L 90.445,149.319 L 93.613,145.338 L 96.767,149.319 L 99.388,149.319 L 94.706,142.983 L 94.706,139.227 L 92.52,139.227 Z M 99.684,139.227 L 99.684,149.305 L 107.687,149.305 C 108.257,149.305 108.748,149.102 109.159,148.695 C 109.57,148.289 109.776,147.8 109.776,147.23 L 109.776,144.623 C 109.776,144.053 109.57,143.565 109.159,143.159 C 108.748,142.752 108.257,142.549 107.687,142.549 L 107.589,142.549 L 109.776,139.97 L 109.776,139.227 L 107.533,139.227 L 104.744,142.549 L 101.856,142.535 C 101.884,142.535 101.898,142.507 101.898,142.451 C 101.88,142.451 101.866,142.455 101.856,142.465 L 101.856,139.227 L 99.684,139.227 Z M 111.292,139.227 L 111.292,147.244 C 111.292,147.824 111.493,148.314 111.895,148.716 C 112.296,149.118 112.787,149.319 113.366,149.319 L 119.295,149.319 C 119.875,149.319 120.368,149.116 120.774,148.709 C 121.18,148.303 121.384,147.814 121.384,147.244 L 121.384,139.227 L 119.183,139.227 L 119.183,142.479 L 113.464,142.479 L 113.464,139.227 L 111.292,139.227 Z M 122.995,139.227 L 122.995,149.319 L 125.181,149.319 L 125.181,139.227 L 122.995,139.227 Z M 126.081,139.227 L 126.081,149.333 L 128.253,149.333 L 128.253,141.414 L 136.173,141.414 L 136.173,139.227 L 126.081,139.227 Z M 73.083,144.665 L 73.083,147.132 L 67.364,147.132 L 67.364,144.665 L 73.083,144.665 Z M 119.183,144.665 L 119.183,147.132 L 113.464,147.132 L 113.464,144.665 L 119.183,144.665 Z M 107.575,144.735 L 107.575,147.132 L 101.856,147.132 L 101.856,144.735 L 107.575,144.735 Z" fill-rule="nonzero" stroke-linejoin="round" stroke-linecap="round" stroke="none" stroke-width="0.25" fill="#ffffff" marker-start="none" marker-end="none" stroke-miterlimit="79.8403193612775"/>
    <path d="M 54.742,130.544 C 54.55,130.734 54.454,130.966 54.454,131.24 L 54.454,131.684 L 55.481,131.684 L 55.481,131.293 L 58.184,131.293 L 58.184,132.127 L 55.435,132.127 C 55.165,132.127 54.934,132.222 54.742,132.412 C 54.55,132.602 54.454,132.834 54.454,133.108 L 54.454,134.049 C 54.454,134.323 54.55,134.555 54.742,134.745 C 54.934,134.935 55.165,135.03 55.435,135.03 L 58.244,135.03 C 58.513,135.03 58.744,134.934 58.936,134.741 C 59.128,134.549 59.225,134.318 59.225,134.049 L 59.225,133.605 L 58.184,133.605 L 58.184,133.996 L 55.481,133.996 L 55.481,133.161 L 58.244,133.161 C 58.513,133.161 58.744,133.065 58.936,132.873 C 59.128,132.681 59.225,132.45 59.225,132.18 L 59.225,131.24 C 59.225,130.97 59.128,130.739 58.936,130.547 C 58.744,130.355 58.513,130.259 58.244,130.259 L 55.435,130.259 C 55.165,130.259 54.934,130.354 54.742,130.544 Z M 64.94,130.544 C 64.75,130.734 64.655,130.966 64.655,131.24 L 64.655,134.049 C 64.655,134.323 64.75,134.555 64.94,134.745 C 65.13,134.935 65.362,135.03 65.635,135.03 L 68.445,135.03 C 68.714,135.03 68.945,134.934 69.137,134.741 C 69.329,134.549 69.425,134.318 69.425,134.049 L 69.425,131.24 C 69.425,130.97 69.329,130.739 69.137,130.547 C 68.945,130.355 68.714,130.259 68.445,130.259 L 65.635,130.259 C 65.362,130.259 65.13,130.354 64.94,130.544 Z M 74.898,130.259 L 74.898,135.036 L 75.925,135.036 L 75.925,131.293 L 79.668,131.293 L 79.668,130.259 L 74.898,130.259 Z M 85.059,130.544 C 84.869,130.734 84.774,130.966 84.774,131.24 L 84.774,135.03 L 85.801,135.03 L 85.801,131.293 L 88.504,131.293 L 88.504,135.03 L 89.544,135.03 L 89.544,131.24 C 89.544,130.97 89.448,130.739 89.256,130.547 C 89.064,130.355 88.833,130.259 88.564,130.259 L 85.754,130.259 C 85.481,130.259 85.249,130.354 85.059,130.544 Z M 96.64,130.259 L 96.64,133.996 L 94.772,133.996 L 94.772,135.03 L 99.542,135.03 L 99.542,133.996 L 97.674,133.996 L 97.674,130.259 L 96.64,130.259 Z M 104.781,130.259 L 104.781,135.03 L 105.814,135.03 L 105.814,130.259 L 104.781,130.259 Z M 111.241,130.544 C 111.051,130.734 110.956,130.966 110.956,131.24 L 110.956,134.049 C 110.956,134.323 111.051,134.555 111.241,134.745 C 111.431,134.935 111.663,135.03 111.936,135.03 L 114.746,135.03 C 115.015,135.03 115.246,134.934 115.438,134.741 C 115.63,134.549 115.726,134.318 115.726,134.049 L 115.726,131.24 C 115.726,130.97 115.63,130.739 115.438,130.547 C 115.246,130.355 115.015,130.259 114.746,130.259 L 111.936,130.259 C 111.663,130.259 111.431,130.354 111.241,130.544 Z M 121.192,130.259 L 121.192,135.03 L 122.252,135.03 L 124.922,131.849 L 124.922,135.03 L 125.963,135.03 L 125.963,130.259 L 124.903,130.259 L 122.219,133.453 L 122.219,130.259 L 121.192,130.259 Z M 131.696,130.544 C 131.504,130.734 131.408,130.966 131.408,131.24 L 131.408,131.684 L 132.435,131.684 L 132.435,131.293 L 135.138,131.293 L 135.138,132.127 L 132.389,132.127 C 132.119,132.127 131.888,132.222 131.696,132.412 C 131.504,132.602 131.408,132.834 131.408,133.108 L 131.408,134.049 C 131.408,134.323 131.504,134.555 131.696,134.745 C 131.888,134.935 132.119,135.03 132.389,135.03 L 135.198,135.03 C 135.467,135.03 135.698,134.934 135.89,134.741 C 136.082,134.549 136.179,134.318 136.179,134.049 L 136.179,133.605 L 135.138,133.605 L 135.138,133.996 L 132.435,133.996 L 132.435,133.161 L 135.198,133.161 C 135.467,133.161 135.698,133.065 135.89,132.873 C 136.082,132.681 136.179,132.45 136.179,132.18 L 136.179,131.24 C 136.179,130.97 136.082,130.739 135.89,130.547 C 135.698,130.355 135.467,130.259 135.198,130.259 L 132.389,130.259 C 132.119,130.259 131.888,130.354 131.696,130.544 Z M 68.385,131.293 L 68.385,133.996 L 65.682,133.996 L 65.682,131.293 L 68.385,131.293 Z M 114.686,131.293 L 114.686,133.996 L 111.983,133.996 L 111.983,131.293 L 114.686,131.293 Z" fill-rule="nonzero" stroke-linejoin="round" stroke-linecap="round" stroke="none" stroke-width="0.25" fill="#ffffff" marker-start="none" marker-end="none" stroke-miterlimit="79.8403193612775"/>
    <g id="Group_11" fill-rule="nonzero" stroke-linejoin="round" stroke-linecap="round" stroke="none" stroke-width="0.25" fill="#19737e" stroke-miterlimit="79.8403193612775">
     <g id="Group_12">
      <path d="M 221.15,69.265 L 221.15,88.083 L 236.094,88.083 C 237.158,88.083 238.075,87.704 238.842,86.945 C 239.61,86.186 239.994,85.274 239.994,84.21 L 239.994,79.342 C 239.994,78.277 239.61,77.365 238.842,76.606 C 238.075,75.847 237.158,75.468 236.094,75.468 L 235.911,75.468 L 239.994,70.652 L 239.994,69.265 L 235.806,69.265 L 230.598,75.468 L 225.206,75.442 C 225.259,75.442 225.285,75.389 225.285,75.285 C 225.25,75.285 225.224,75.293 225.206,75.311 L 225.206,69.265 L 221.15,69.265 Z M 242.826,69.265 L 242.826,84.236 C 242.826,85.318 243.201,86.234 243.951,86.984 C 244.702,87.734 245.618,88.109 246.7,88.109 L 257.771,88.109 C 258.852,88.109 259.773,87.73 260.532,86.971 C 261.291,86.212 261.67,85.3 261.67,84.236 L 261.67,69.265 L 257.561,69.265 L 257.561,75.337 L 246.883,75.337 L 246.883,69.265 L 242.826,69.265 Z M 264.679,69.265 L 264.679,88.109 L 268.762,88.109 L 268.762,69.265 L 264.679,69.265 Z M 270.443,69.265 L 270.443,88.136 L 274.5,88.136 L 274.5,73.348 L 289.287,73.348 L 289.287,69.265 L 270.443,69.265 Z M 257.561,79.42 L 257.561,84.026 L 246.883,84.026 L 246.883,79.42 L 257.561,79.42 Z M 235.885,79.551 L 235.885,84.026 L 225.206,84.026 L 225.206,79.551 L 235.885,79.551 Z" marker-start="none" marker-end="none"/>
     </g>
    </g>
   </g>
   <g id="MouseOver"/>
  </g>
 </g>
</svg>
